<svg preserveAspectRatio="none" width="100%" height="100%" overflow="visible" style="display: block;" viewBox="0 0 132 34" fill="none" xmlns="http://www.w3.org/2000/svg">
<g id="Frame 4">
<rect width="132" height="34" fill="#F7D850"/>
<path id="Vector" d="M66 9C67.0609 9 68.0783 9.42143 68.8284 10.1716C69.5786 10.9217 70 11.9391 70 13C70 14.0609 69.5786 15.0783 68.8284 15.8284C68.0783 16.5786 67.0609 17 66 17C64.9391 17 63.9217 16.5786 63.1716 15.8284C62.4214 15.0783 62 14.0609 62 13C62 11.9391 62.4214 10.9217 63.1716 10.1716C63.9217 9.42143 64.9391 9 66 9ZM66 19C70.42 19 74 20.79 74 23V25H58V23C58 20.79 61.58 19 66 19Z" fill="var(--fill-0, black)"/>
</g>
</svg>
