<svg preserveAspectRatio="none" width="100%" height="100%" overflow="visible" style="display: block;" viewBox="0 0 17.5 13.5" fill="none" xmlns="http://www.w3.org/2000/svg">
<path id="Vector" d="M11.4167 0.75V2.46429M11.4167 5.89286V7.60714M11.4167 11.0357V12.75M2.52778 0.75H14.9722C15.4437 0.75 15.8959 0.930612 16.2293 1.2521C16.5627 1.57359 16.75 2.00963 16.75 2.46429V5.03571C16.2785 5.03571 15.8263 5.21633 15.4929 5.53782C15.1595 5.85931 14.9722 6.29534 14.9722 6.75C14.9722 7.20466 15.1595 7.64069 15.4929 7.96218C15.8263 8.28367 16.2785 8.46429 16.75 8.46429V11.0357C16.75 11.4904 16.5627 11.9264 16.2293 12.2479C15.8959 12.5694 15.4437 12.75 14.9722 12.75H2.52778C2.05628 12.75 1.6041 12.5694 1.2707 12.2479C0.937301 11.9264 0.75 11.4904 0.75 11.0357V8.46429C1.2215 8.46429 1.67368 8.28367 2.00708 7.96218C2.34048 7.64069 2.52778 7.20466 2.52778 6.75C2.52778 6.29534 2.34048 5.85931 2.00708 5.53782C1.67368 5.21633 1.2215 5.03571 0.75 5.03571V2.46429C0.75 2.00963 0.937301 1.57359 1.2707 1.2521C1.6041 0.930612 2.05628 0.75 2.52778 0.75Z" stroke="var(--stroke-0, white)" stroke-width="1.5" stroke-linecap="round" stroke-linejoin="round"/>
</svg>
