<svg preserveAspectRatio="none" width="100%" height="100%" overflow="visible" style="display: block;" viewBox="0 0 31.9916 24" fill="none" xmlns="http://www.w3.org/2000/svg">
<g id="Group 1">
<path id="Vector" d="M2.18118 23.9998H7.27072V11.6394L0 6.18642V21.8186C0 23.0255 0.977981 23.9998 2.18118 23.9998Z" fill="var(--fill-0, #4285F4)"/>
<path id="Vector_2" d="M24.7207 24H29.8104C31.0173 24 31.9916 23.022 31.9916 21.8188V6.18642L24.7207 11.6396" fill="var(--fill-0, #34A853)"/>
<path id="Vector_3" d="M24.7207 2.18755V11.6396L31.9916 6.18666V3.27798C31.9916 0.58061 28.9124 -0.957227 26.7567 0.66059" fill="var(--fill-0, #FBBC04)"/>
<path id="Vector_4" d="M7.27094 11.6394V2.18752L15.9958 8.73093L24.7207 2.1872V11.6393L15.9958 18.1832" fill="var(--fill-0, #EA4335)"/>
<path id="Vector_5" d="M0 3.27798V6.18634L7.27072 11.6395V2.18755L5.23493 0.66059C3.07551 -0.957227 0 0.58061 0 3.27798Z" fill="var(--fill-0, #C5221F)"/>
</g>
</svg>
