<svg preserveAspectRatio="none" width="100%" height="100%" overflow="visible" style="display: block;" viewBox="0 0 13.4693 17.499" fill="none" xmlns="http://www.w3.org/2000/svg">
<g id="Group">
<path id="Vector" fill-rule="evenodd" clip-rule="evenodd" d="M6.73466 16.749L7.36405 16.0398C8.07822 15.2226 8.72091 14.4449 9.29211 13.7068L9.7639 13.0844C11.7342 10.4305 12.7193 8.32492 12.7193 6.76758C12.7193 3.4441 10.0402 0.75 6.73466 0.75C3.42913 0.75 0.75 3.4441 0.75 6.76758C0.75 8.32492 1.73514 10.4309 3.70543 13.0854L4.17722 13.7078C4.99268 14.7524 5.84572 15.7662 6.73466 16.749Z" stroke="var(--stroke-0, white)" stroke-width="1.5" stroke-linecap="round" stroke-linejoin="round"/>
<path id="Vector_2" d="M6.73463 9.22828C8.11181 9.22828 9.22824 8.11186 9.22824 6.73467C9.22824 5.35749 8.11181 4.24106 6.73463 4.24106C5.35744 4.24106 4.24102 5.35749 4.24102 6.73467C4.24102 8.11186 5.35744 9.22828 6.73463 9.22828Z" stroke="var(--stroke-0, white)" stroke-width="1.5" stroke-linecap="round" stroke-linejoin="round"/>
</g>
</svg>
