<svg preserveAspectRatio="none" width="100%" height="100%" overflow="visible" style="display: block;" viewBox="0 0 53.0805 64" fill="none" xmlns="http://www.w3.org/2000/svg">
<g id="Frame 2">
<rect x="0.443609" y="0.443564" width="52.1933" height="63.1129" fill="var(--fill-0, black)"/>
<rect x="0.443609" y="0.443564" width="52.1933" height="63.1129" stroke="var(--stroke-0, white)" stroke-width="0.887129"/>
<g id="Yard">
<path id="Vector" d="M45.7932 11.7228V8.87129H48.6447V23.1287H45.7932V21.703H44.3675V23.1287H40.0902V21.703H38.6645V13.1485H40.0902V11.7228H45.7932ZM45.7932 20.2772V14.5743H41.516V20.2772H45.7932Z" fill="var(--fill-0, white)"/>
<path id="Vector_2" d="M34.3872 14.5743H32.9614V16H31.5357V23.1287H28.6842V11.7228H31.5357V13.1485H32.9614V11.7228H35.8129V13.1485H37.2387V14.5743H35.8129V16H34.3872V14.5743Z" fill="var(--fill-0, white)"/>
<path id="Vector_3" d="M18.7003 21.703H17.2745V17.4257H18.7003V16H24.4032V14.5743H17.2745V13.1485H18.7003V11.7228H25.829V13.1485H27.2547V23.1287H24.4032V21.703H22.9775V23.1287H18.7003V21.703ZM20.126 20.2772H24.4032V18.8515H20.126V20.2772Z" fill="var(--fill-0, white)"/>
<path id="Vector_4" d="M8.71277 18.8515H7.28703V17.4258H5.86129V16H4.43555V8.8713H7.28703V14.5743H8.71277V16H11.5643V14.5743H12.99V8.8713H15.8415V16H14.4157V17.4258H12.99V18.8515H11.5643V23.1287H8.71277V18.8515Z" fill="var(--fill-0, white)"/>
</g>
<line id="Line 1" y1="31.7782" x2="53.0804" y2="31.7782" stroke="var(--stroke-0, white)" stroke-width="0.443564"/>
<g id="Deck">
<path id="Vector_5" d="M43.6548 49.4257H42.2291V55.1287H39.3776V40.8713H42.2291V48H43.6548V46.5743H45.0806V43.7228H47.9321V46.5743H46.5063V48H45.0806V49.4257H46.5063V50.8515H47.9321V55.1287H45.0806V50.8515H43.6548V49.4257Z" fill="var(--fill-0, white)"/>
<path id="Vector_6" d="M35.0966 50.8515H37.9481V53.703H36.5224V55.1287H29.3937V53.703H27.9679V45.1485H29.3937V43.7228H36.5224V45.1485H37.9481V48H35.0966V46.5743H30.8194V52.2772H35.0966V50.8515Z" fill="var(--fill-0, white)"/>
<path id="Vector_7" d="M16.5583 45.1485H17.984V43.7228H25.1127V45.1485H26.5385V50.8515H19.4097V52.2772H26.5385V53.703H25.1127V55.1287H17.984V53.703H16.5583V45.1485ZM19.4097 48H23.687V46.5743H19.4097V48Z" fill="var(--fill-0, white)"/>
<path id="Vector_8" d="M5.1486 40.8713H13.7031V42.297H15.1288V53.703H13.7031V55.1287H5.1486V40.8713ZM10.8516 50.8515H12.2773V45.1485H10.8516V43.7228H8.00009V52.2772H10.8516V50.8515Z" fill="var(--fill-0, white)"/>
</g>
</g>
</svg>
