<svg width="25" height="27" viewBox="0 0 25 27" fill="none" xmlns="http://www.w3.org/2000/svg">
<path d="M12.1145 21.0159H20.9494C21.2934 21.0351 21.6367 20.966 21.9464 20.815C22.2561 20.6639 22.522 20.4361 22.7187 20.1532C22.9154 19.8702 23.0363 19.5416 23.07 19.1987C23.1036 18.8558 23.0489 18.5099 22.9109 18.1942C22.4439 16.7827 20.5822 15.0896 20.5822 13.4239C20.5822 9.72644 20.5822 8.75344 18.7608 6.57911C18.1713 5.87924 17.4405 5.31199 16.6163 4.91462L15.6005 4.42164C15.43 4.31875 15.283 4.18135 15.1688 4.01824C15.0546 3.85514 14.9758 3.66995 14.9375 3.47458C14.836 2.81606 14.4878 2.22081 13.9635 1.80956C13.4393 1.39832 12.7783 1.20185 12.1145 1.26003C11.4628 1.22089 10.8198 1.42611 10.3112 1.83561C9.80265 2.2451 9.46498 2.82947 9.36417 3.47458C9.31844 3.67669 9.22884 3.86629 9.10173 4.02994C8.97462 4.1936 8.81309 4.32732 8.62858 4.42164L7.61276 4.91462C6.789 5.31214 6.05862 5.87938 5.46956 6.57911C3.6494 8.75344 3.6494 9.72644 3.6494 13.4239C3.6494 15.0896 1.87205 16.6127 1.40501 18.1085C1.12349 19.0128 0.967808 21.0159 3.32507 21.0159H12.1145Z" stroke="black" stroke-width="2.5" stroke-linecap="round" stroke-linejoin="round"/>
<path d="M16.3479 21.0161C16.359 21.5751 16.2571 22.1305 16.0483 22.6492C15.8395 23.1678 15.5281 23.6389 15.1328 24.0342C14.7375 24.4295 14.2664 24.7409 13.7477 24.9497C13.2291 25.1585 12.6737 25.2604 12.1147 25.2493C11.5556 25.2612 10.9999 25.1598 10.481 24.9512C9.96211 24.7427 9.4908 24.4313 9.09543 24.0358C8.70005 23.6403 8.3888 23.1689 8.1804 22.6499C7.972 22.131 7.87077 21.5752 7.88279 21.0161" stroke="black" stroke-width="2.5" stroke-linecap="round" stroke-linejoin="round"/>
</svg>
