<svg preserveAspectRatio="none" width="100%" height="100%" overflow="visible" style="display: block;" viewBox="0 0 26.8435 25.2225" fill="none" xmlns="http://www.w3.org/2000/svg">
<g id="Group">
<path id="Vector" d="M12.0289 2.59834C12.029 2.41755 12.0647 2.23855 12.134 2.07156C12.2033 1.90458 12.3048 1.75287 12.4328 1.62512C12.5607 1.49736 12.7125 1.39606 12.8796 1.32698C13.0467 1.2579 13.2257 1.22241 13.4065 1.22253C13.5873 1.22266 13.7663 1.25838 13.9333 1.32768C14.1003 1.39698 14.252 1.49849 14.3797 1.62642C14.5075 1.75434 14.6088 1.90618 14.6779 2.07326C14.747 2.24034 14.7824 2.41938 14.7823 2.60018L12.0289 2.59834ZM13.4047 4.67353H12.028V4.67261L13.4047 4.67353ZM14.7814 13.8857C14.7814 14.2508 14.6364 14.601 14.3782 14.8591C14.12 15.1173 13.7698 15.2624 13.4047 15.2624C13.0395 15.2624 12.6894 15.1173 12.4312 14.8591C12.173 14.601 12.028 14.2508 12.028 13.8857H14.7814ZM12.028 13.9026C12.028 13.5375 12.173 13.1873 12.4312 12.9291C12.6894 12.671 13.0395 12.5259 13.4047 12.5259C13.7698 12.5259 14.12 12.671 14.3782 12.9291C14.6364 13.1873 14.7814 13.5375 14.7814 13.9026H12.028ZM14.7814 23.8458C14.7814 24.2109 14.6364 24.5611 14.3782 24.8193C14.12 25.0775 13.7698 25.2225 13.4047 25.2225C13.0395 25.2225 12.6894 25.0775 12.4312 24.8193C12.173 24.5611 12.028 24.2109 12.028 23.8458H14.7814ZM14.7823 2.60018V2.6346L12.0289 2.63322V2.59834L14.7823 2.60018ZM14.7823 2.6346V3.04303L12.0289 3.04073V2.63322L14.7823 2.6346ZM14.7823 3.04303V3.45054L12.0289 3.4487V3.04073L14.7823 3.04303ZM14.7823 3.45054L14.7819 3.85896L12.0284 3.85667L12.0289 3.4487L14.7823 3.45054ZM14.7819 3.85896L14.7814 4.26647L12.028 4.26464L12.0284 3.85667L14.7819 3.85896ZM14.7814 4.26647V4.67445L12.028 4.67261V4.26464L14.7814 4.26647ZM14.7814 4.67353V13.8857H12.028V4.67353H14.7814ZM14.7814 13.9026V23.8458H12.028V13.9026H14.7814Z" fill="var(--fill-0, black)"/>
<path id="Vector_2" d="M2 12.4236L11.7183 2.70575C11.942 2.482 12.2076 2.30451 12.5 2.18342C12.7923 2.06233 13.1056 2 13.422 2C13.7384 2 14.0517 2.06233 14.344 2.18342C14.6364 2.30451 14.902 2.482 15.1257 2.70575L24.8436 12.4241" stroke="var(--stroke-0, black)" stroke-width="4" stroke-linecap="round" stroke-linejoin="round"/>
</g>
</svg>
