<svg preserveAspectRatio="none" width="100%" height="100%" overflow="visible" style="display: block;" viewBox="0 0 32 16" fill="none" xmlns="http://www.w3.org/2000/svg">
<g id="Frame 693">
<path id="Vector" fill-rule="evenodd" clip-rule="evenodd" d="M6 1.11602C4.71669 1.11602 3.48595 1.60606 2.57852 2.47834C1.67108 3.35062 1.16129 4.53368 1.16129 5.76727C1.16129 7.00085 1.67108 8.18391 2.57852 9.05619C3.48595 9.92847 4.71669 10.4185 6 10.4185C7.28331 10.4185 8.51405 9.92847 9.42148 9.05619C10.3289 8.18391 10.8387 7.00085 10.8387 5.76727C10.8387 4.53368 10.3289 3.35062 9.42148 2.47834C8.51405 1.60606 7.28331 1.11602 6 1.11602ZM7.05771e-09 5.76727C5.63326e-05 4.65036 0.337483 3.5575 0.971301 2.6214C1.60512 1.6853 2.50806 0.946248 3.57046 0.493988C4.63287 0.0417274 5.80903 -0.104279 6.9561 0.0737005C8.10318 0.25168 9.17182 0.745987 10.0322 1.49659C10.8927 2.2472 11.5078 3.2218 11.8031 4.30205C12.0983 5.3823 12.0609 6.52171 11.6954 7.58191C11.3299 8.64211 10.652 9.57749 9.74401 10.2744C8.83605 10.9714 7.73711 11.3999 6.58064 11.508V12.279H7.93548C8.08948 12.279 8.23717 12.3378 8.34606 12.4425C8.45495 12.5472 8.51613 12.6891 8.51613 12.8372C8.51613 12.9852 8.45495 13.1272 8.34606 13.2318C8.23717 13.3365 8.08948 13.3953 7.93548 13.3953H6.58064V15.4419C6.58064 15.5899 6.51947 15.7318 6.41058 15.8365C6.30169 15.9412 6.154 16 6 16C5.846 16 5.69831 15.9412 5.58942 15.8365C5.48053 15.7318 5.41935 15.5899 5.41935 15.4419V13.3953H4.06452C3.91052 13.3953 3.76283 13.3365 3.65394 13.2318C3.54505 13.1272 3.48387 12.9852 3.48387 12.8372C3.48387 12.6891 3.54505 12.5472 3.65394 12.4425C3.76283 12.3378 3.91052 12.279 4.06452 12.279H5.41935V11.508C3.93553 11.3693 2.55855 10.7046 1.55671 9.64335C0.554872 8.5821 -7.22622e-05 7.20033 7.05771e-09 5.76727Z" fill="var(--fill-0, white)"/>
<path id="Vector_2" fill-rule="evenodd" clip-rule="evenodd" d="M27.1627 0.558128C27.1627 0.410103 27.2215 0.268141 27.3261 0.163472C27.4308 0.0588026 27.5728 0 27.7208 0H31.4418C31.5899 0 31.7318 0.0588026 31.8365 0.163472C31.9412 0.268141 32 0.410103 32 0.558128V4.27898C32 4.42701 31.9412 4.56897 31.8365 4.67364C31.7318 4.77831 31.5899 4.83711 31.4418 4.83711C31.2938 4.83711 31.1518 4.77831 31.0472 4.67364C30.9425 4.56897 30.8837 4.42701 30.8837 4.27898V1.90508L27.4938 5.29552C28.5748 6.5798 29.118 8.23191 29.0101 9.90707C28.9022 11.5822 28.1515 13.151 26.9147 14.286C25.6779 15.421 24.0505 16.0345 22.3722 15.9985C20.6939 15.9625 19.0943 15.2798 17.9073 14.0928C16.7202 12.9059 16.0375 11.3064 16.0015 9.62811C15.9655 7.94987 16.5791 6.32257 17.7141 5.0858C18.8491 3.84904 20.418 3.09838 22.0932 2.99048C23.7685 2.88258 25.4206 3.42577 26.705 4.5067L30.0941 1.11626H27.7208C27.5728 1.11626 27.4308 1.05745 27.3261 0.952784C27.2215 0.848115 27.1627 0.706153 27.1627 0.558128ZM22.5114 4.09294C21.0804 4.09294 19.708 4.66136 18.6962 5.67317C17.6843 6.68497 17.1159 8.05727 17.1159 9.48818C17.1159 10.9191 17.6843 12.2914 18.6962 13.3032C19.708 14.315 21.0804 14.8834 22.5114 14.8834C23.9424 14.8834 25.3147 14.315 26.3266 13.3032C27.3384 12.2914 27.9069 10.9191 27.9069 9.48818C27.9069 8.05727 27.3384 6.68497 26.3266 5.67317C25.3147 4.66136 23.9424 4.09294 22.5114 4.09294Z" fill="var(--fill-0, white)"/>
</g>
</svg>
