<svg preserveAspectRatio="none" width="100%" height="100%" overflow="visible" style="display: block;" viewBox="0 0 16 16" fill="none" xmlns="http://www.w3.org/2000/svg">
<path id="Vector" d="M7.11111 14.2222V11.4667C6.38518 11.3037 5.73718 10.9964 5.16711 10.5449C4.59704 10.0933 4.17837 9.52651 3.91111 8.84444C2.8 8.7111 1.87052 8.22607 1.12267 7.38933C0.374815 6.55259 0.000592593 5.57096 0 4.44444V3.55555C0 3.06666 0.174222 2.64829 0.522667 2.30044C0.871111 1.95259 1.28948 1.77837 1.77778 1.77778H3.55556C3.55556 1.28889 3.72978 0.870518 4.07822 0.522666C4.42667 0.174815 4.84504 0.000592592 5.33333 0H10.6667C11.1556 0 11.5742 0.174222 11.9227 0.522666C12.2711 0.871111 12.445 1.28948 12.4444 1.77778H14.2222C14.7111 1.77778 15.1298 1.952 15.4782 2.30044C15.8267 2.64889 16.0006 3.06726 16 3.55555V4.44444C16 5.57037 15.6258 6.55199 14.8773 7.38933C14.1289 8.22666 13.1994 8.7117 12.0889 8.84444C11.8222 9.52592 11.4039 10.0927 10.8338 10.5449C10.2637 10.997 9.61541 11.3043 8.88889 11.4667V14.2222H11.5556C11.8074 14.2222 12.0187 14.3075 12.1893 14.4782C12.36 14.6489 12.445 14.8598 12.4444 15.1111C12.4439 15.3624 12.3585 15.5736 12.1884 15.7449C12.0184 15.9161 11.8074 16.0012 11.5556 16H4.44444C4.19259 16 3.98163 15.9147 3.81156 15.744C3.64148 15.5733 3.55615 15.3624 3.55556 15.1111C3.55496 14.8598 3.6403 14.6489 3.81156 14.4782C3.98281 14.3075 4.19378 14.2222 4.44444 14.2222H7.11111ZM3.55556 6.93333V3.55555H1.77778V4.44444C1.77778 5.0074 1.94074 5.51496 2.26667 5.96711C2.59259 6.41925 3.02222 6.74133 3.55556 6.93333ZM9.88889 8.99999C10.4074 8.48148 10.6667 7.85185 10.6667 7.11111V1.77778H5.33333V7.11111C5.33333 7.85185 5.59259 8.48148 6.11111 8.99999C6.62963 9.51851 7.25926 9.77777 8 9.77777C8.74074 9.77777 9.37037 9.51851 9.88889 8.99999ZM12.4444 6.93333C12.9778 6.74074 13.4074 6.41837 13.7333 5.96622C14.0593 5.51407 14.2222 5.00681 14.2222 4.44444V3.55555H12.4444V6.93333Z" fill="var(--fill-0, white)"/>
</svg>
