<svg preserveAspectRatio="none" width="100%" height="100%" overflow="visible" style="display: block;" viewBox="0 0 16 16" fill="none" xmlns="http://www.w3.org/2000/svg">
<path id="Vector" d="M0 8.01421C0 6.56483 0.362345 5.22203 1.07993 3.9929C1.79751 2.76377 2.77087 1.79041 4 1.07282C5.22913 0.35524 6.56483 0 8.0071 0C9.08703 0 10.1243 0.213144 11.1119 0.632327C12.0995 1.05151 12.9449 1.627 13.6625 2.33748C14.3801 3.04796 14.9485 3.90053 15.3677 4.8952C15.7869 5.88988 16 6.92007 16 8.01421C16 9.09414 15.7869 10.1314 15.3677 11.119C14.9485 12.1066 14.373 12.9591 13.6625 13.6696C12.952 14.3801 12.0995 14.9485 11.1119 15.3677C10.1243 15.7869 9.09414 16 8.0071 16C6.92007 16 5.87567 15.7869 4.8881 15.3677C3.90053 14.9485 3.04796 14.373 2.33037 13.6625C1.61279 12.952 1.05151 12.0995 0.625222 11.119C0.198934 10.1385 0 9.10124 0 8.01421ZM1.76199 8.01421C1.76199 9.69805 2.373 11.1616 3.60213 12.405C4.83126 13.6341 6.29485 14.2451 8.0071 14.2451C9.12966 14.2451 10.1741 13.968 11.1261 13.4067C12.0782 12.8455 12.8455 12.0924 13.4067 11.1332C13.968 10.1741 14.2522 9.13677 14.2522 8.01421C14.2522 6.89165 13.968 5.84725 13.4067 4.8881C12.8455 3.92895 12.0853 3.16874 11.1261 2.60746C10.167 2.04618 9.12966 1.76909 8.0071 1.76909C6.88455 1.76909 5.84014 2.04618 4.8881 2.60746C3.93606 3.16874 3.16874 3.92895 2.60036 4.8881C2.03197 5.84725 1.76199 6.89165 1.76199 8.01421ZM7.38899 8.01421V3.28242C7.38899 3.11901 7.44583 2.97691 7.5595 2.86323C7.67318 2.74956 7.81528 2.69272 7.97869 2.69272C8.1421 2.69272 8.28419 2.74956 8.39787 2.86323C8.51155 2.97691 8.56838 3.11901 8.56838 3.28242V7.65187L11.119 9.13677C11.2611 9.22202 11.3464 9.34281 11.389 9.49911C11.4316 9.65542 11.4103 9.80462 11.325 9.93961C11.2114 10.1385 11.0409 10.238 10.8135 10.238C10.6927 10.238 10.5933 10.2096 10.5151 10.1528L7.80107 8.56838C7.68028 8.53286 7.58082 8.46181 7.50266 8.36235C7.42451 8.26288 7.38899 8.1492 7.38899 8.01421Z" fill="var(--fill-0, white)"/>
</svg>
